<?xml version="1.0" encoding="UTF-8" standalone="no"?><!DOCTYPE svg PUBLIC "-//W3C//DTD SVG 1.1//EN" "http://www.w3.org/Graphics/SVG/1.1/DTD/svg11.dtd"><svg width="100%" height="100%" viewBox="0 0 817 817" version="1.1" xmlns="http://www.w3.org/2000/svg" xmlns:xlink="http://www.w3.org/1999/xlink" xml:space="preserve" xmlns:serif="http://www.serif.com/" style="fill-rule:evenodd;clip-rule:evenodd;stroke-linejoin:round;stroke-miterlimit:2;"><rect id="icon" x="0" y="0" width="816.667" height="816.667" style="fill:none;"/><clipPath id="_clip1"><rect id="icon1" serif:id="icon" x="0" y="0" width="816.667" height="816.667"/></clipPath><g clip-path="url(#_clip1)"><path d="M816.667,57.211c-0,-15.173 -6.028,-29.725 -16.757,-40.454c-10.729,-10.729 -25.281,-16.757 -40.454,-16.757l-702.245,0c-15.173,-0 -29.725,6.028 -40.454,16.757c-10.729,10.729 -16.757,25.281 -16.757,40.454l-0,702.245c-0,15.173 6.028,29.725 16.757,40.454c10.729,10.729 25.281,16.757 40.454,16.757l702.245,-0c15.173,-0 29.725,-6.028 40.454,-16.757c10.729,-10.729 16.757,-25.281 16.757,-40.454l-0,-702.245Z" style="fill:#2e2e2e;"/><path d="M770.833,568.876c0,-8.874 -3.525,-17.385 -9.8,-23.659c-6.274,-6.275 -14.785,-9.8 -23.659,-9.8c-119.182,-0 -522.233,-0 -641.415,-0c-8.874,-0 -17.384,3.525 -23.659,9.8c-6.275,6.274 -9.8,14.785 -9.8,23.659c-0,5.407 -0,11.007 -0,16.415c-0,8.874 3.525,17.384 9.8,23.659c6.275,6.275 14.785,9.8 23.659,9.8c119.182,-0 522.233,-0 641.415,-0c8.874,0 17.385,-3.525 23.659,-9.8c6.275,-6.275 9.8,-14.785 9.8,-23.659c0,-5.408 0,-11.008 0,-16.415Z" style="fill:#17ff37;"/><g><rect x="281.428" y="166.667" width="253.811" height="163.567" style="fill:#17ff37;"/><circle cx="281.428" cy="271.011" r="104.345" style="fill:#17ff37;"/><circle cx="535.239" cy="271.011" r="104.345" style="fill:#17ff37;"/><g><circle cx="535.239" cy="228.947" r="18.331" style="fill:#2e2e2e;"/><circle cx="535.239" cy="313.076" r="18.331" style="fill:#2e2e2e;"/><path d="M595.634,271.011c0,10.117 -8.214,18.331 -18.331,18.331c-10.117,-0 -18.331,-8.214 -18.331,-18.331c0,-10.117 8.214,-18.331 18.331,-18.331c10.117,0 18.331,8.214 18.331,18.331Z" style="fill:#2e2e2e;"/><path d="M511.505,271.011c0,10.117 -8.214,18.331 -18.331,18.331c-10.117,-0 -18.33,-8.214 -18.33,-18.331c-0,-10.117 8.213,-18.331 18.33,-18.331c10.117,0 18.331,8.214 18.331,18.331Z" style="fill:#2e2e2e;"/></g><g><path d="M297.282,216.153c0,-1.469 -0.583,-2.877 -1.621,-3.915c-1.039,-1.039 -2.447,-1.622 -3.916,-1.622c-5.794,-0 -14.84,-0 -20.635,-0c-1.468,-0 -2.877,0.583 -3.915,1.622c-1.038,1.038 -1.622,2.446 -1.622,3.915c0,20.165 0,89.552 0,109.717c0,1.468 0.584,2.876 1.622,3.915c1.038,1.038 2.447,1.621 3.915,1.621c5.795,0 14.841,0 20.635,0c1.469,0 2.877,-0.583 3.916,-1.621c1.038,-1.039 1.621,-2.447 1.621,-3.915c0,-20.165 0,-89.552 0,-109.717Z" style="fill:#2e2e2e;"/><path d="M336.286,286.866c1.469,-0 2.877,-0.584 3.915,-1.622c1.039,-1.038 1.622,-2.447 1.622,-3.915c0,-5.795 0,-14.841 0,-20.635c0,-1.469 -0.583,-2.877 -1.622,-3.916c-1.038,-1.038 -2.446,-1.621 -3.915,-1.621c-20.165,-0 -89.551,-0 -109.716,-0c-1.469,-0 -2.877,0.583 -3.916,1.621c-1.038,1.039 -1.621,2.447 -1.621,3.916c-0,5.794 -0,14.84 -0,20.635c-0,1.468 0.583,2.877 1.621,3.915c1.039,1.038 2.447,1.622 3.916,1.622c20.165,-0 89.551,-0 109.716,-0Z" style="fill:#2e2e2e;"/></g></g><path d="M412.095,509.537c-0.713,1.425 -2.169,2.325 -3.762,2.325c-1.593,-0 -3.049,-0.9 -3.761,-2.325c-11.321,-22.641 -44.926,-89.853 -55.238,-110.476c-0.652,-1.304 -0.582,-2.852 0.184,-4.092c0.766,-1.24 2.12,-1.994 3.577,-1.994c21.656,-0 88.821,-0 110.476,-0c1.458,-0 2.812,0.754 3.578,1.994c0.766,1.24 0.836,2.788 0.184,4.092c-10.312,20.623 -43.918,87.835 -55.238,110.476Z" style="fill:#17ff37;"/></g></svg>