<svg xmlns="http://www.w3.org/2000/svg" xmlns:xlink="http://www.w3.org/1999/xlink" width="100%" height="100%" version="1.1" viewBox="0 0 16 16" xml:space="preserve" style="fill-rule:evenodd;clip-rule:evenodd;stroke-linecap:round;stroke-linejoin:round;stroke-miterlimit:1.5"><g><g transform="matrix(1,0,0,1,-19,0) matrix(0.0163265,0,0,0.0188457,9.07347,44.0047)"><rect id="VSliderGamepad" width="980" height="849" x="608" y="-2335" style="fill:none"/><g id="VSliderGamepad1"><g id="VSlider.svg"><g><path d="M5,1C3.903,1 3,1.903 3,3C3,4.097 3.903,5 5,5C6.097,5 7,4.097 7,3C7,1.903 6.097,1 5,1ZM10,1C9.451,1 9,1.451 9,2C9,2.549 9.451,3 10,3L12,3C12.549,3 13,2.549 13,2C13,1.451 12.549,1 12,1L10,1ZM6,6.867C5.344,7.036 4.656,7.036 4,6.867L4,13.997C4,14.546 4.451,14.997 5,14.997C5.549,14.997 6,14.546 6,13.997L6,6.867ZM10,13C9.451,13 9,13.451 9,14C9,14.549 9.451,15 10,15L12,15C12.549,15 13,14.549 13,14C13,13.451 12.549,13 12,13L10,13Z" style="fill:#8eef97;fill-rule:nonzero" transform="matrix(61.25,0,0,53.0625,1098,-1910.5) matrix(1,0,0,1,-8,-8)"/></g></g><g transform="matrix(40.8333,0,0,35.375,1465.5,-2741.81)"><circle cx="-4.5" cy="23.5" r="4.5" style="fill:#003029;fill-opacity:0;stroke:#8eef97;stroke-width:1.5px"/><g transform="matrix(0.555556,0,0,0.555556,-2,10.4444)"><circle cx="-4.5" cy="23.5" r="4.5" style="fill:#8eef97;stroke:#8eef97;stroke-opacity:0;stroke-width:2.7px"/></g></g></g></g></g></svg>